<?xml version="1.0" encoding="utf-8"?>
<!-- Generator: Adobe Illustrator 23.0.1, SVG Export Plug-In . SVG Version: 6.00 Build 0)  -->
<svg version="1.1" id="Calque_1" xmlns="http://www.w3.org/2000/svg" xmlns:xlink="http://www.w3.org/1999/xlink" x="0px" y="0px"
	 viewBox="0 0 1920 1080" style="enable-background:new 0 0 1920 1080;" xml:space="preserve">
<style type="text/css">
	.st0{fill:#FFFFFF;}
</style>
<g>
	<path class="st0" d="M929.3,423.1c-4,0-7.7,1.1-11.2,3.3c-3.4,2.2-6.4,5.3-9,9.3l1.8-11.7h-15.1l-10.5,66h15.1l5.6-35.3
		c1.2-5.2,3.2-8.8,5.8-11c2.7-2.1,6.2-3.2,10.7-3.2h4L929.3,423.1z"/>
	<path class="st0" d="M959.9,423c-5.9,0-11.3,1.4-16.2,4.2c-4.9,2.8-9.1,6.8-12.4,11.9c-3.3,5.2-5.5,11.2-6.6,18
		c-0.4,2.6-0.6,5.1-0.6,7.5c0,8.2,2.3,14.7,6.9,19.4c4.6,4.8,10.7,7.2,18.2,7.2c7,0,13.3-2,18.8-6.1c5.5-4.1,9.6-9.3,12.3-15.7
		h-16.2c-1.4,2.4-3.1,4.3-5.3,5.8c-2.2,1.5-4.8,2.2-7.8,2.2c-3.6,0-6.5-1.2-8.6-3.5c-2.2-2.3-3.3-5.6-3.3-9.7c0-1,0-1.8,0.1-2.4
		h43.4c0.5-1.7,1-3.8,1.4-6.2c0.4-2,0.5-4.2,0.5-6.8c0-7.9-2.2-14.1-6.7-18.8C973.5,425.3,967.5,423,959.9,423z M969.1,451.6h-28.3
		c1.2-4.6,3.3-8.2,6.3-10.9c3-2.7,6.4-4,10.2-4c3.6,0,6.5,1.1,8.7,3.2c2.2,2.1,3.3,5.1,3.3,8.9C969.4,449.4,969.3,450.3,969.1,451.6
		z"/>
	<path class="st0" d="M1037.4,424.1l-1.5,9.4c-1.4-3-3.7-5.5-6.7-7.5c-3-2-6.8-3-11.2-3c-5.1,0-9.9,1.4-14.5,4.2
		c-4.6,2.8-8.5,6.8-11.6,11.9c-3.2,5.2-5.3,11.1-6.4,17.8c-0.4,2.7-0.6,5.3-0.6,7.7c0,5.3,0.9,10,2.8,14c1.9,4,4.5,7.1,7.8,9.3
		c3.4,2.2,7.2,3.3,11.6,3.3c4.4,0,8.5-1,12.3-3c3.8-2,6.8-4.6,9.2-7.7l-1.6,9.7h15.1l10.5-66H1037.4z M1032.1,457.1
		c-0.6,4-1.9,7.4-3.8,10.4c-1.9,2.9-4.2,5.2-6.8,6.7c-2.6,1.5-5.4,2.3-8.2,2.3c-3.7,0-6.8-1.4-9.2-4.1c-2.4-2.7-3.6-6.5-3.6-11.3
		c0-1.4,0.1-2.8,0.3-4.3c0.6-4,1.9-7.4,3.9-10.3c1.9-2.9,4.2-5.1,6.8-6.6c2.6-1.5,5.3-2.3,8.1-2.3c3.7,0,6.8,1.3,9.3,3.9
		c2.5,2.6,3.7,6.3,3.7,11C1032.5,453.5,1032.4,455,1032.1,457.1z"/>
	<path class="st0" d="M1103.1,433.3c-1.6-3.1-4-5.6-7.2-7.4c-3.2-1.9-6.8-2.8-10.6-2.8c-5.1,0-9.9,1.4-14.5,4.2
		c-4.6,2.8-8.5,6.8-11.7,11.9c-3.2,5.2-5.3,11.1-6.4,17.8c-0.4,2.7-0.6,5.3-0.6,7.7c0,5.3,0.9,10,2.8,14c1.9,4,4.5,7.1,7.9,9.3
		c3.4,2.2,7.3,3.3,11.6,3.3c4.4,0,8.5-1,12.2-3c3.7-2,6.7-4.6,9.1-7.9l-1.6,9.8h15.1l14.1-88.2h-15.1L1103.1,433.3z M1099.4,457.1
		c-0.6,4-1.9,7.4-3.8,10.4c-1.9,2.9-4.2,5.2-6.8,6.7c-2.6,1.5-5.4,2.3-8.2,2.3c-3.7,0-6.8-1.4-9.2-4.1c-2.4-2.7-3.6-6.5-3.6-11.3
		c0-1.4,0.1-2.8,0.3-4.3c0.6-4,1.9-7.4,3.9-10.3c1.9-2.9,4.2-5.1,6.8-6.6c2.6-1.5,5.3-2.3,8.1-2.3c3.7,0,6.8,1.3,9.3,3.9
		c2.5,2.6,3.7,6.3,3.7,11C1099.8,453.5,1099.6,455,1099.4,457.1z"/>
	<path class="st0" d="M1094.5,459.6c-1.7-0.4-2.8-2.6-2.3-5c0.3-1.4,1-2.5,1.9-3.2c-0.5-0.4-1.1-0.7-1.7-0.9
		c-4.3-1.3-9.3,2.7-11.3,9.1s-0.1,12.6,4.1,13.9c4.3,1.3,9.3-2.7,11.3-9.1c0.6-2,0.9-4.1,0.8-5.9
		C1096.5,459.3,1095.5,459.8,1094.5,459.6z"/>
	<path class="st0" d="M1026.3,459.6c-1.7-0.4-2.8-2.6-2.3-5c0.3-1.4,1.1-2.6,2-3.3c-0.5-0.3-0.9-0.6-1.5-0.7
		c-4.2-1.3-9.2,2.7-11.2,9c-2,6.3-0.1,12.5,4.1,13.8c4.2,1.3,9.2-2.7,11.2-9c0.7-2.2,0.9-4.3,0.7-6.2
		C1028.6,459.2,1027.4,459.8,1026.3,459.6z"/>
	<path class="st0" d="M1218.8,439.9c-2.2,0-4.3,0.8-6,2.4c-1.8,1.6-3,3.7-3.7,6.4h16.7c0.1-0.8,0.1-1.3,0.1-1.6c0-2.3-0.7-4-2-5.3
		C1222.6,440.6,1220.9,439.9,1218.8,439.9z"/>
	<path class="st0" d="M1238.7,448.2c-1.4-11.7-7.6-20.5-17-27c-17.1-11.8-36-14.6-56-9.9c-12.6,2.9-23.6,8.9-31.8,19.2
		c-9.8,12.4-9.8,30,0.1,42.4c7.6,9.5,17.6,15.2,29,18.5c15.1,4.4,30.2,3.6,44.9-1.8c1.3-0.5,2.2-0.4,3.4,0.3
		c5.9,3.7,11.8,7.3,17.7,10.9c0.4,0.3,0.8,0.5,1.3,0.8c1.5,0.8,2.9,0.8,4.2-0.4c1.3-1.2,1.4-2.7,0.6-4.2c-2.7-5.7-5.4-11.4-8.2-17.1
		c-0.6-1.1-0.4-1.8,0.5-2.7c3.9-3.8,7.1-8.2,9-13.3c1.1-3,1.7-6.2,2.5-9.4c0-2,0-3.9,0-5.9C1238.8,448.5,1238.7,448.4,1238.7,448.2z
		 M1196.7,448.6l-3.7,22.9h-8.8l3.4-21.6c0.1-0.8,0.2-1.7,0.2-2.5c0-2.3-0.6-4-1.7-5.2c-1.1-1.2-2.7-1.8-4.8-1.8
		c-2.5,0-4.5,0.8-6.2,2.4c-1.7,1.6-2.8,4-3.2,7v-0.1l-3.5,21.6h-8.8l3.4-21.6c0.1-0.8,0.2-1.6,0.2-2.4c0-2.3-0.6-4.1-1.7-5.3
		c-1.1-1.2-2.7-1.8-4.8-1.8c-2.3,0-4.3,0.8-6,2.3c-1.7,1.5-2.8,3.7-3.3,6.5l-3.6,22.2h-8.9l6.2-39h8.9l-0.8,4.7
		c1.4-1.6,3.1-2.9,5-3.8c1.9-0.9,4-1.4,6.2-1.4c2.7,0,5.1,0.6,7,1.9c1.9,1.3,3.3,3.1,4.1,5.5c1.5-2.3,3.4-4.1,5.8-5.4
		c2.4-1.4,4.9-2,7.5-2c3.7,0,6.7,1.1,8.8,3.3c2.2,2.2,3.2,5.3,3.2,9.4C1197.1,446.1,1197,447.4,1196.7,448.6z M1234.6,451.1
		c-0.3,1.4-0.5,2.6-0.8,3.7h-25.7c0,0.3-0.1,0.8-0.1,1.4c0,2.4,0.6,4.4,1.9,5.7c1.3,1.4,3,2.1,5.1,2.1c1.8,0,3.3-0.4,4.6-1.3
		c1.3-0.9,2.3-2,3.1-3.4h9.6c-1.6,3.8-4,6.8-7.3,9.3c-3.3,2.4-7,3.6-11.1,3.6c-4.5,0-8.1-1.4-10.8-4.2c-2.7-2.8-4.1-6.6-4.1-11.5
		c0-1.4,0.1-2.9,0.4-4.4c0.6-4,1.9-7.6,3.9-10.6c2-3.1,4.4-5.4,7.3-7c2.9-1.6,6.1-2.5,9.6-2.5c4.5,0,8,1.4,10.7,4.1
		c2.6,2.7,3.9,6.4,3.9,11.1C1234.9,448.6,1234.8,449.9,1234.6,451.1z"/>
</g>
</svg>
